<?xml version="1.0" encoding="UTF-8"?>
<svg width="336px" height="314px" viewBox="0 0 336 314" version="1.1" xmlns="http://www.w3.org/2000/svg" xmlns:xlink="http://www.w3.org/1999/xlink">
    <!-- Generator: Sketch 52.5 (67469) - http://www.bohemiancoding.com/sketch -->
    <title>browser copy 3</title>
    <desc>Created with Sketch.</desc>
    <g id="Symbols" stroke="none" stroke-width="1" fill="none" fill-rule="evenodd">
        <g id="speedo-4">
            <g id="browser-copy-3">
                <path d="M335.724,167.966 L282.758,167.966 C282.72,126.996 260.854,89.151 225.379,68.656 L251.862,22.753 C303.746,52.704 335.712,108.057 335.724,167.966 Z" id="Path" fill="#BCE817"></path>
                <path d="M251.862,22.752 L225.379,68.655 C189.899,48.057 146.1,48.057 110.62,68.655 L84.137,22.752 C136.018,-7.262 199.982,-7.262 251.862,22.752 Z" id="Path" fill="#FFD338"></path>
                <path d="M110.621,68.655 C75.146,89.15 53.279,126.995 53.242,167.965 L0.276,167.965 C0.288,108.056 32.255,52.703 84.138,22.751 L110.621,68.655 Z" id="Path" fill="#F6892B"></path>
                <path d="M110.621,267.276 L84.138,313.179 C32.255,283.226 0.288,227.874 0.276,167.965 L53.242,167.965 C53.279,208.935 75.145,246.781 110.621,267.276 Z" id="Path" fill="#E32222"></path>
                <path d="M335.724,167.966 C335.712,227.874 303.745,283.227 251.862,313.18 L225.379,267.277 C260.854,246.782 282.721,208.937 282.758,167.967 L335.724,167.966 Z" id="Path" fill="#0CB964"></path>
                <path d="M247.553513,194.027421 C247.553513,213.528421 231.744513,229.337421 212.243513,229.337421 C192.742513,229.337421 176.933513,213.528421 176.933513,194.027421 C176.933513,174.526421 212.243513,61.6134206 212.243513,61.6134206 C212.243513,61.6134206 247.553513,174.525421 247.553513,194.027421 Z" id="Path" fill="#4C5B5C" transform="translate(212.243513, 145.475421) rotate(61.000000) translate(-212.243513, -145.475421) "></path>
            </g>
        </g>
    </g>
</svg>