<svg xmlns="http://www.w3.org/2000/svg" width="71" height="71" viewBox="0 0 71 71">
    <g fill="none" fill-rule="evenodd">
        <path fill="#80BA27" fill-rule="nonzero" d="M70.497 35.25c0 19.466-15.782 35.247-35.248 35.247C15.78 70.497 0 54.716 0 35.25 0 15.78 15.78 0 35.25 0c19.465 0 35.247 15.78 35.247 35.25"/>
        <path fill="#FFF" d="M26.606 36.777h-5.663l-1.919 9.99c-.266 1.336-.67 2.81-.67 4.192 0 1.782 1.161 2.495 2.856 2.495.668 0 1.382-.089 2.05-.267l-.533 2.586c-.671.133-1.383.225-2.097.225-3.076 0-5.485-.937-5.485-4.506 0-.935.136-1.827.31-2.72l2.32-11.995h-3.432l.49-2.496h3.433l.938-4.952 3.523-1.915-1.295 6.867h5.663l-.489 2.496zM41.844 37.36c-1.573-.641-3.364-1.102-5.056-1.072-1.919.033-4.402.837-4.36 3.154.06 3.522 8.624 3.596 8.722 9.258.093 5.216-4.376 7.258-8.923 7.337-2.006.035-3.885-.246-5.811-.701l.53-2.953c1.57.732 3.628 1.14 5.369 1.111 2.408-.043 5.648-.903 5.595-3.891-.065-3.745-8.627-3.817-8.728-9.435-.077-4.46 3.77-6.356 7.696-6.424 1.914-.033 3.703.248 5.5.886l-.534 2.73zM46.199 55.983L43.031 55.983 49.005 25.216 52.173 25.216z"/>
    </g>
</svg>
