<?xml version="1.0" encoding="UTF-8" standalone="no"?>
<!-- Created with Inkscape (http://www.inkscape.org/) -->

<svg
   xmlns:dc="http://purl.org/dc/elements/1.1/"
   xmlns:cc="http://creativecommons.org/ns#"
   xmlns:rdf="http://www.w3.org/1999/02/22-rdf-syntax-ns#"
   xmlns:svg="http://www.w3.org/2000/svg"
   xmlns="http://www.w3.org/2000/svg"
   xmlns:sodipodi="http://sodipodi.sourceforge.net/DTD/sodipodi-0.dtd"
   xmlns:inkscape="http://www.inkscape.org/namespaces/inkscape"
   version="1.1"
   id="svg3877"
   width="39"
   height="38"
   viewBox="0 0 39 38"
   sodipodi:docname="hittaarbavg_1.svg"
   inkscape:version="0.92.3 (2405546, 2018-03-11)"
   inkscape:export-filename="C:\Projects\sa2\frontend\src\assets\hittaarbavg_1.png"
   inkscape:export-xdpi="96"
   inkscape:export-ydpi="96">
  <metadata
     id="metadata3883">
    <rdf:RDF>
      <cc:Work
         rdf:about="">
        <dc:format>image/svg+xml</dc:format>
        <dc:type
           rdf:resource="http://purl.org/dc/dcmitype/StillImage" />
        <dc:title></dc:title>
      </cc:Work>
    </rdf:RDF>
  </metadata>
  <defs
     id="defs3881" />
  <sodipodi:namedview
     pagecolor="#ffffff"
     bordercolor="#666666"
     borderopacity="1"
     objecttolerance="10"
     gridtolerance="10"
     guidetolerance="10"
     inkscape:pageopacity="0"
     inkscape:pageshadow="2"
     inkscape:window-width="1920"
     inkscape:window-height="1017"
     id="namedview3879"
     showgrid="false"
     inkscape:zoom="70.264084"
     inkscape:cx="19.899311"
     inkscape:cy="30.927981"
     inkscape:window-x="-8"
     inkscape:window-y="-8"
     inkscape:window-maximized="1"
     inkscape:current-layer="svg3877" />
  <rect
     style="fill:#ffffff;fill-opacity:1;stroke-width:0.95440614"
     id="rect5600"
     width="22.301579"
     height="3.9280384"
     x="10.27552"
     y="2.2633924"
     inkscape:export-xdpi="3705.0601"
     inkscape:export-ydpi="3705.0601" />
  <g
     id="g5415"
     transform="matrix(0.025,0,0,0.025,11.20784,3.0501896)"
     inkscape:export-xdpi="3705.0601"
     inkscape:export-ydpi="3705.0601">
    <path
       id="path5257"
       d="M 492.4,15.3 V 24 h 12.8 v 5.8 h -12.8 v 8.7 h 13.2 v 5.8 h -19.4 v -35 h 19.5 v 5.8 h -13.2 v 0.2 z"
       class="st0"
       inkscape:connector-curvature="0"
       style="fill:#ffffff" />
    <path
       id="path5259"
       d="M 693.6,15.3 V 24 h 12.8 v 5.8 h -12.8 v 8.7 h 13.2 v 5.8 h -19.4 v -35 h 19.4 v 5.8 h -13.2 z"
       class="st0"
       inkscape:connector-curvature="0"
       style="fill:#ffffff" />
    <path
       id="path5261"
       d="m 132.7,35.8 h -12.5 l -4,8.5 h -6.6 l 16.8,-36 h 0.2 l 16.8,36 h -6.8 z m -2.4,-5.6 -3.8,-9.5 -3.9,9.5 z"
       class="st0"
       inkscape:connector-curvature="0"
       style="fill:#ffffff" />
    <path
       id="path5263"
       d="M 169.6,44.3 158.1,29.5 v 14.8 h -6.2 v -35 h 12.5 c 6,0 10.8,4.3 10.8,10.2 0,5.9 -4.3,9.2 -9.6,9.8 l 12,14.9 z M 158.1,15.1 v 9 h 6.1 c 2.5,0 4.6,-2 4.7,-4.5 0,-2.5 -2,-4.5 -4.5,-4.5 0,0 0,0 -0.1,0 z"
       class="st0"
       inkscape:connector-curvature="0"
       style="fill:#ffffff" />
    <path
       id="path5265"
       d="M 417.3,44.3 405.9,29.5 v 14.8 h -6.2 v -35 h 12.5 c 6,0 10.8,4.3 10.8,10.2 0,5.9 -4.3,9.2 -9.6,9.8 l 12,14.9 z M 405.9,15.1 v 9 h 6.1 c 2.5,0 4.6,-2 4.7,-4.5 0,-2.5 -2,-4.5 -4.5,-4.5 0,0 0,0 -0.1,0 z"
       class="st0"
       inkscape:connector-curvature="0"
       style="fill:#ffffff" />
    <path
       id="path5267"
       d="m 210.9,34 c 0,5.8 -4.7,10.2 -11.3,10.2 h -11.3 v -35 h 11.3 c 6,0 10.6,4.3 10.6,10.2 0.1,2.8 -1.1,5.4 -3.3,7.1 2.5,1.7 4,4.5 4,7.5 z M 194.3,15.1 v 8.6 h 5.3 c 2.2,0.2 4.2,-1.5 4.4,-3.8 0,-0.2 0,-0.3 0,-0.5 0.1,-2.3 -1.7,-4.3 -4.1,-4.3 -0.1,0 -0.2,0 -0.3,0 0,0 -5.3,0 -5.3,0 z M 204.4,34 c -0.1,-2.6 -2.2,-4.6 -4.8,-4.5 h -5.3 v 8.9 h 5.3 c 2.5,0.1 4.6,-1.8 4.8,-4.2 0,-0.1 0,-0.2 0,-0.2 z"
       class="st0"
       inkscape:connector-curvature="0"
       style="fill:#ffffff" />
    <path
       id="path5269"
       d="M 229.7,15.3 V 24 h 12.8 v 5.8 h -12.8 v 8.7 h 13.2 v 5.8 h -19.5 v -35 h 19.4 v 5.8 h -13.2 v 0.2 z"
       class="st0"
       inkscape:connector-curvature="0"
       style="fill:#ffffff" />
    <path
       id="path5271"
       d="m 262.4,15.1 h -8.9 V 9.3 h 24.1 v 5.8 h -8.9 v 29.2 h -6.2 V 15.1 Z"
       class="st0"
       inkscape:connector-curvature="0"
       style="fill:#ffffff" />
    <path
       id="path5273"
       d="m 327,15.2 v 8.7 h 13 v 5.8 h -13 v 14.6 h -6.2 v -35 h 19.6 v 5.8 z"
       class="st0"
       inkscape:connector-curvature="0"
       style="fill:#ffffff" />
    <path
       id="path5275"
       d="m 351,26.7 c 0.2,-10.4 8.8,-18.6 19.2,-18.3 10,0.2 18.1,8.3 18.3,18.3 -0.2,10.4 -8.8,18.6 -19.2,18.3 -10,-0.2 -18.1,-8.3 -18.3,-18.3 z m 4.5,-22.9 c 0.1,-2 1.8,-3.6 3.8,-3.5 1.9,0.1 3.4,1.6 3.5,3.5 -0.1,2 -1.8,3.6 -3.8,3.5 -1.9,-0.1 -3.4,-1.6 -3.5,-3.5 z m 26.7,22.9 c 0,-6.9 -5.6,-12.4 -12.4,-12.4 -6.8,0 -12.4,5.6 -12.4,12.4 v 0 c 0,6.9 5.6,12.4 12.4,12.4 6.8,0 12.4,-5.5 12.4,-12.4 z m -5.4,-23 c 0.1,-2 1.8,-3.6 3.8,-3.5 1.9,0.1 3.4,1.6 3.5,3.5 0,2 -1.7,3.6 -3.6,3.6 -2.1,0 -3.7,-1.5 -3.7,-3.6 0,0.1 0,0 0,0 z"
       class="st0"
       inkscape:connector-curvature="0"
       style="fill:#ffffff" />
    <path
       id="path5277"
       d="m 472.3,8.5 v 35.8 h -6.2 V 21.5 L 454.3,31.8 442.4,21.4 v 22.8 h -6.2 V 8.5 h 0.1 l 18,15.4 L 472,8.5 Z"
       class="st0"
       inkscape:connector-curvature="0"
       style="fill:#ffffff" />
    <path
       id="path5279"
       d="m 547,26.8 c 0,10.2 -7.9,17.4 -18.7,17.4 H 519 v -35 h 9.4 c 10.7,0.1 18.6,7.3 18.6,17.6 z m -6.3,0 c 0,-6.9 -5,-11.6 -12.3,-11.6 h -3.1 v 23.2 h 3.1 c 7.3,0 12.3,-4.7 12.3,-11.6 z"
       class="st0"
       inkscape:connector-curvature="0"
       style="fill:#ffffff" />
    <path
       id="path5281"
       d="m 576.9,38.4 v 5.8 h -19.4 v -35 h 6.2 v 29.2 z"
       class="st0"
       inkscape:connector-curvature="0"
       style="fill:#ffffff" />
    <path
       id="path5283"
       d="m 588,9.3 h 6.2 v 35 H 588 Z"
       class="st0"
       inkscape:connector-curvature="0"
       style="fill:#ffffff" />
    <path
       id="path5285"
       d="M 636.6,9.3 V 45 h -0.1 L 614.3,23 V 44.3 H 608 V 8.6 h 0.1 l 22.2,22 V 9.3 Z"
       class="st0"
       inkscape:connector-curvature="0"
       style="fill:#ffffff" />
    <path
       id="path5287"
       d="M 748,9.3 V 45 h -0.1 L 725.7,23 v 21.3 h -6.2 V 8.6 h 0.1 l 22.3,22 V 9.3 Z"
       class="st0"
       inkscape:connector-curvature="0"
       style="fill:#ffffff" />
    <path
       id="path5289"
       d="m 674.4,44.3 h -8.6 C 655,44.3 647.1,37 647.1,26.9 647.1,16.8 655,9.4 665.8,9.4 h 6 v 5.8 h -6 c -7.4,0 -12.3,4.7 -12.3,11.6 0,6.9 5,11.6 12.3,11.6 h 2.3 V 29.7 H 663 v -5.8 h 11.5 z"
       class="st0"
       inkscape:connector-curvature="0"
       style="fill:#ffffff" />
    <path
       id="path5291"
       d="m 287.5,38.3 h 11 c 2.5,0 4.5,-2.1 4.5,-4.6 v 0 c 0,-2.5 -2,-4.5 -4.4,-4.5 0,0 0,0 -0.1,0 l -1.6,-0.1 c -6.3,0 -10.5,-3.3 -10.5,-9.8 0,-6.5 4.9,-10 10.8,-10 h 10.1 v 5.8 h -10.1 c -2.5,0 -4.5,1.6 -4.5,4.2 0,2.6 2,3.8 4.5,3.8 l 1.6,0.1 c 6.6,0 10.5,3.6 10.5,10.5 0,6.5 -4.9,10.5 -10.8,10.5 h -11 z"
       class="st0"
       inkscape:connector-curvature="0"
       style="fill:#ffffff" />
    <path
       id="path5293"
       d="M 157.3,66.4 147,88.5 h -0.1 l -4.6,-9.8 -4.5,9.8 v 0 L 127.5,66.4 h 3.5 l 6.8,14.7 2.8,-6.1 -4,-8.7 h 3.5 l 2.2,4.9 2.2,-4.9 h 3.4 l -4,8.6 2.8,6.2 6.8,-14.7 z"
       class="st0"
       inkscape:connector-curvature="0"
       style="fill:#ffffff" />
    <path
       id="path5295"
       d="m 165,69.3 v 6.3 h 8.3 v 3.1 H 165 v 6.2 h 8.5 V 88 H 161.8 V 66.4 h 11.7 v 3.1 H 165 Z"
       class="st0"
       inkscape:connector-curvature="0"
       style="fill:#ffffff" />
    <path
       id="path5297"
       d="m 197.9,77.2 c 0,6.3 -4.9,10.8 -11.6,10.8 h -5.4 V 66.4 h 5.4 c 6.7,0 11.6,4.5 11.6,10.8 z m -3.3,0 c 0,-4.6 -3.4,-7.8 -8.2,-7.8 h -2.2 v 15.5 h 2.2 c 4.9,0.1 8.2,-3.1 8.2,-7.7 z"
       class="st0"
       inkscape:connector-curvature="0"
       style="fill:#ffffff" />
    <path
       id="path5299"
       d="m 203.9,66.4 h 3.3 V 88 h -3.3 z"
       class="st0"
       inkscape:connector-curvature="0"
       style="fill:#ffffff" />
    <path
       id="path5301"
       d="M 250.4,66.4 V 88 h -3.3 V 78.8 H 236.6 V 88 h -3.3 V 66.4 h 3.3 v 9.3 h 10.5 v -9.3 z"
       class="st0"
       inkscape:connector-curvature="0"
       style="fill:#ffffff" />
    <path
       id="path5303"
       d="m 284.1,72.6 c 0,3.5 -2.9,6.3 -6.3,6.3 -0.1,0 -0.1,0 -0.2,0 H 274 V 88 h -3.3 V 66.4 h 6.8 c 3.5,-0.1 6.4,2.6 6.5,6 0.1,0.1 0.1,0.1 0.1,0.2 z m -3.2,0 c 0,-1.8 -1.4,-3.2 -3.2,-3.2 0,0 0,0 -0.1,0 H 274 v 6.3 h 3.6 c 1.7,0.1 3.2,-1.2 3.3,-3 0,0 0,0 0,-0.1 z"
       class="st0"
       inkscape:connector-curvature="0"
       style="fill:#ffffff" />
    <path
       id="path5305"
       d="M 289.7,81.3 V 66.4 h 3.3 v 14.9 c 0,2.3 1.9,4.1 4.1,4.1 0.1,0 0.2,0 0.2,0 2.3,0.1 4.3,-1.7 4.4,-4 V 81.3 66.4 h 3.3 v 14.9 c 0,4.1 -2.9,7.2 -7.5,7.2 -4.9,0 -7.8,-3.1 -7.8,-7.2 z"
       class="st0"
       inkscape:connector-curvature="0"
       style="fill:#ffffff" />
    <path
       id="path5307"
       d="m 325.7,81.8 c 0,3.9 -2.8,6.3 -6.8,6.3 H 312 V 66.4 h 6.9 c 3.4,-0.2 6.3,2.5 6.4,5.8 0,0.1 0,0.2 0,0.2 0,1.8 -0.8,3.5 -2.2,4.6 1.5,1.2 2.5,2.9 2.6,4.8 z M 315.3,69.4 v 6.1 h 3.6 c 1.7,0 3,-1.4 3,-3 0,-1.6 -1.4,-3 -3,-3 z m 7.1,12.4 c -0.1,-1.8 -1.7,-3.3 -3.5,-3.2 h -3.6 v 6.3 h 3.6 c 1.8,0.1 3.4,-1.3 3.5,-3.1 z"
       class="st0"
       inkscape:connector-curvature="0"
       style="fill:#ffffff" />
    <path
       id="path5309"
       d="M 343.9,84.9 V 88 H 332.4 V 66.4 h 3.3 V 85 Z"
       class="st0"
       inkscape:connector-curvature="0"
       style="fill:#ffffff" />
    <path
       id="path5311"
       d="m 349.6,66.4 h 3.2 V 88 h -3.2 z"
       class="st0"
       inkscape:connector-curvature="0"
       style="fill:#ffffff" />
    <path
       id="path5313"
       d="m 358.8,77.2 c 0,-6.3 4.9,-10.8 11.6,-10.8 h 3.2 v 3.1 h -3.2 c -5,0 -8.2,3.1 -8.2,7.8 0,4.7 3.3,7.7 8.2,7.7 h 3.2 v 3 h -3.2 c -6.7,-0.1 -11.6,-4.5 -11.6,-10.8 z"
       class="st0"
       inkscape:connector-curvature="0"
       style="fill:#ffffff" />
    <path
       id="path5315"
       d="m 396,69.3 v 6.3 h 8.3 v 3.1 H 396 v 6.2 h 8.5 V 88 H 392.8 V 66.4 h 11.8 v 3.1 H 396 Z"
       class="st0"
       inkscape:connector-curvature="0"
       style="fill:#ffffff" />
    <path
       id="path5317"
       d="m 433.8,66 v 22 h -3.2 V 72.6 l -7.6,6.3 -7.5,-6.3 V 88 h -3.2 V 65.9 h 0.1 l 10.8,9 z"
       class="st0"
       inkscape:connector-curvature="0"
       style="fill:#ffffff" />
    <path
       id="path5319"
       d="m 455.2,72.5 c 0,3.5 -2.9,6.3 -6.3,6.3 -0.1,0 -0.1,0 -0.2,0 H 445 V 88 h -3.2 V 66.4 h 6.8 c 3.6,0 6.6,2.6 6.6,6.1 z m -3.3,0 c 0,-1.8 -1.4,-3.2 -3.2,-3.2 0,0 0,0 -0.1,0 H 445 v 6.3 h 3.6 c 1.7,0.1 3.2,-1.2 3.3,-2.9 0,0 0,-0.1 0,-0.2 z"
       class="st0"
       inkscape:connector-curvature="0"
       style="fill:#ffffff" />
    <path
       id="path5321"
       d="M 472,84.9 V 88 H 460.6 V 66.4 h 3.2 V 85 Z"
       class="st0"
       inkscape:connector-curvature="0"
       style="fill:#ffffff" />
    <path
       id="path5323"
       d="m 475.4,77.2 c -0.1,-6.4 4.9,-11.7 11.3,-11.8 6.4,-0.1 11.7,4.9 11.8,11.3 0.1,6.4 -4.9,11.7 -11.3,11.8 -0.1,0 -0.2,0 -0.3,0 -6.2,0.1 -11.4,-4.9 -11.5,-11.3 z m 19.9,0 c 0,-4.6 -3.6,-8.4 -8.2,-8.4 -4.6,0 -8.4,3.6 -8.4,8.2 0,4.6 3.6,8.4 8.2,8.4 h 0.1 c 4.5,0.1 8.2,-3.4 8.3,-7.9 0,0 0,-0.2 0,-0.3 z"
       class="st0"
       inkscape:connector-curvature="0"
       style="fill:#ffffff" />
    <path
       id="path5325"
       d="M 511,77.6 V 88 h -3.3 V 77.6 l -6.6,-11.1 h 3.6 l 4.6,7.8 4.6,-7.8 h 3.6 z"
       class="st0"
       inkscape:connector-curvature="0"
       style="fill:#ffffff" />
    <path
       id="path5327"
       d="m 544.1,66 v 22 h -3.3 V 72.6 l -7.6,6.3 -7.6,-6.3 V 88 h -3.3 V 65.9 h 0.1 l 10.8,9 z"
       class="st0"
       inkscape:connector-curvature="0"
       style="fill:#ffffff" />
    <path
       id="path5329"
       d="m 555.5,69.3 v 6.3 h 8.3 v 3.1 h -8.3 v 6.2 H 564 V 88 H 552.2 V 66.4 H 564 v 3.1 h -8.5 z"
       class="st0"
       inkscape:connector-curvature="0"
       style="fill:#ffffff" />
    <path
       id="path5331"
       d="m 588.7,66.4 v 22 h -0.1 L 574.9,73.6 V 88 h -3.3 V 65.9 h 0.1 l 13.7,14.7 V 66.4 Z"
       class="st0"
       inkscape:connector-curvature="0"
       style="fill:#ffffff" />
    <path
       id="path5333"
       d="m 599.6,69.5 h -5.7 v -3.1 h 14.5 v 3.1 h -5.6 V 88 h -3.3 z"
       class="st0"
       inkscape:connector-curvature="0"
       style="fill:#ffffff" />
    <path
       id="path5335"
       d="m 111.3,84.9 h 6.5 c 1.8,0.1 3.3,-1.3 3.4,-3.1 0.1,-1.8 -1.3,-3.3 -3.1,-3.4 -0.1,0 -0.2,0 -0.4,0 H 117 c -4.4,0 -6.5,-2.5 -6.5,-6 0,-3.5 2.3,-6 6.5,-6 h 6.1 v 3.1 h -6.2 c -1.6,-0.2 -3,1 -3.2,2.6 -0.2,1.6 1,3 2.6,3.2 0.2,0 0.4,0 0.6,0 h 0.8 c 4.5,0 6.6,2.8 6.6,6.3 0,3.5 -2.4,6.3 -6.6,6.3 h -6.4 z"
       class="st0"
       inkscape:connector-curvature="0"
       style="fill:#ffffff" />
    <path
       id="path5337"
       d="m 214.3,84.9 h 6.5 c 1.8,0.1 3.3,-1.3 3.4,-3.1 0.1,-1.8 -1.3,-3.3 -3.1,-3.4 -0.1,0 -0.2,0 -0.4,0 H 220 c -4.5,0 -6.5,-2.5 -6.5,-6 0,-3.5 2.3,-6 6.5,-6 h 6.2 v 3.1 H 220 c -1.6,-0.2 -3,1 -3.2,2.6 -0.2,1.6 1,3 2.6,3.2 0.2,0 0.4,0 0.6,0 h 0.8 c 4.5,0 6.6,2.8 6.6,6.3 0,3.5 -2.4,6.4 -6.6,6.4 h -6.4 z"
       class="st0"
       inkscape:connector-curvature="0"
       style="fill:#ffffff" />
    <path
       id="path5339"
       d="m 625.4,84.9 h 6.5 c 1.8,0.1 3.3,-1.3 3.4,-3.1 0.1,-1.8 -1.3,-3.3 -3.1,-3.4 -0.1,0 -0.2,0 -0.4,0 H 631 c -4.5,0 -6.5,-2.5 -6.5,-6 0,-3.5 2.3,-6 6.5,-6 h 6.2 v 3.1 H 631 c -1.6,-0.2 -3,1 -3.2,2.6 -0.2,1.6 1,3 2.6,3.2 0.2,0 0.4,0 0.6,0 h 0.8 c 4.5,0 6.6,2.8 6.6,6.3 0,3.5 -2.4,6.3 -6.6,6.3 h -6.4 c 0.1,0.1 0,-3 0,-3 z"
       class="st0"
       inkscape:connector-curvature="0"
       style="fill:#ffffff" />
    <path
       id="path5341"
       d="m 648.4,69.3 v 6.3 h 8.3 v 3.1 h -8.3 v 6.2 h 8.5 V 88 H 645.2 V 66.4 h 11.7 v 3.1 h -8.5 z"
       class="st0"
       inkscape:connector-curvature="0"
       style="fill:#ffffff" />
    <path
       id="path5343"
       d="m 674.9,87.9 -7.5,-9.5 V 88 h -3.3 V 66.4 h 7.1 c 3.5,-0.1 6.4,2.6 6.5,6 v 0.1 c 0,3.5 -2.8,5.9 -6.4,6.1 l 7.5,9.4 z m -7.5,-18.4 v 6.2 h 3.8 c 1.7,0 3.1,-1.4 3.1,-3.1 0,-1.7 -1.4,-3.1 -3.1,-3.1 v 0 z"
       class="st0"
       inkscape:connector-curvature="0"
       style="fill:#ffffff" />
    <path
       id="path5345"
       d="m 701.3,66.4 -10.3,22 h -0.1 L 680.6,66.5 h 3.5 l 6.8,14.6 6.8,-14.6 z"
       class="st0"
       inkscape:connector-curvature="0"
       style="fill:#ffffff" />
    <path
       id="path5347"
       d="m 705.9,66.4 h 3.3 V 88 h -3.3 z"
       class="st0"
       inkscape:connector-curvature="0"
       style="fill:#ffffff" />
    <path
       id="path5349"
       d="m 715.1,77.2 c 0,-6.3 4.9,-10.8 11.6,-10.8 h 3.3 v 3.1 h -3.3 c -5,0 -8.2,3.1 -8.2,7.8 0,4.7 3.3,7.7 8.2,7.7 h 3.3 v 3 h -3.3 C 720,87.9 715.1,83.5 715.1,77.2 Z"
       class="st0"
       inkscape:connector-curvature="0"
       style="fill:#ffffff" />
    <path
       id="path5351"
       d="m 739.4,69.3 v 6.3 h 8.3 v 3.1 h -8.3 v 6.2 h 8.5 V 88 H 736.1 V 66.4 h 11.8 v 3.1 h -8.5 z"
       class="st0"
       inkscape:connector-curvature="0"
       style="fill:#ffffff" />
    <path
       id="path5353"
       d="M 30.8,28.7 C 13.8,28.7 0,42.5 0,59.5 c 0,17 13.8,30.8 30.8,30.8 17,0 30.8,-13.8 30.8,-30.8 0,-17 -13.8,-30.8 -30.8,-30.8 z m 0,47.3 C 21.7,76 14.3,68.6 14.3,59.5 14.3,50.4 21.7,43 30.8,43 c 9.1,0 16.5,7.4 16.5,16.5 0,9.1 -7.4,16.5 -16.5,16.5 z"
       class="st1"
       inkscape:connector-curvature="0"
       style="fill:#90dc4b" />
    <path
       id="path5355"
       d="m 30.8,0 v 14.4 c 25,0 45.2,20.2 45.2,45.1 0,8.3 -2.3,16.4 -6.6,23.5 l 12,7.9 C 98.7,63 90.1,26.2 62.2,8.9 52.8,3.1 41.9,0 30.8,0 Z"
       class="st1"
       inkscape:connector-curvature="0"
       style="fill:#90dc4b" />
  </g>
  <text
     xml:space="preserve"
     style="font-style:normal;font-weight:normal;font-size:2px;line-height:1.25;font-family:sans-serif;letter-spacing:0px;word-spacing:0px;fill:#01065a;fill-opacity:1;stroke:none;stroke-width:0.05"
     x="13.81123"
     y="4.8949142"
     id="text3889"
     inkscape:export-xdpi="3705.0601"
     inkscape:export-ydpi="3705.0601"><tspan
       sodipodi:role="line"
       id="tspan3887"
       x="13.81123"
       y="4.8949142"
       style="stroke-width:0.05">Hitta Arbetsgivare</tspan></text>
</svg>
